<svg width="44" height="44" viewBox="0 0 44 44" fill="none" xmlns="http://www.w3.org/2000/svg">
<path d="M33.6013 28.2524C33.249 28.2524 32.8958 28.1737 32.5798 28.0247L31.2194 27.3824L31.5842 26.6093L32.9442 27.2514C33.431 27.4808 34.0379 27.4319 34.4883 27.1159C35.1646 26.6396 35.3445 25.6935 34.8882 25.0078C34.8227 24.9077 34.7405 24.8123 34.642 24.7223L28.6171 19.0051L29.2057 18.3848L35.2251 24.097C35.3704 24.2299 35.499 24.3796 35.6021 24.537C36.3105 25.6023 36.032 27.0742 34.9801 27.8153C34.5722 28.1015 34.0955 28.2524 33.6013 28.2524Z" fill="#375CA5"/>
<path d="M30.8913 31.0353C30.5619 31.0353 30.2296 30.9576 29.9215 30.7971L24.034 27.7319L24.4289 26.9734L30.3164 30.0388C30.8228 30.3029 31.4414 30.1885 31.8205 29.7615L31.9728 29.5897C32.2116 29.3206 32.3218 28.9614 32.2755 28.6045C32.2291 28.2474 32.0304 27.9283 31.7303 27.7292L27.4958 24.9163L27.9692 24.2041L32.2037 27.017C32.7096 27.3533 33.0448 27.8915 33.1233 28.4941C33.2018 29.0965 33.0156 29.7026 32.6124 30.1572L32.46 30.329C32.0505 30.7902 31.4757 31.0353 30.8913 31.0353Z" fill="#375CA5"/>
<path d="M28.4037 33.0914C28.1992 33.0914 27.993 33.0593 27.7905 32.9958L23.9396 31.7775L24.1968 30.9623L28.0476 32.1806C28.5836 32.3484 29.1476 32.1134 29.4118 31.6448C29.621 31.2695 29.6055 30.8112 29.3705 30.4505L30.086 29.9834C30.4955 30.6106 30.5231 31.4075 30.1574 32.0631C29.7988 32.6982 29.1271 33.0914 28.4037 33.0914Z" fill="#375CA5"/>
<path d="M25.3789 34.872C25.2603 34.872 25.1409 34.8605 25.0219 34.8374L21.0254 33.9739L21.2057 33.1382L25.1948 34C25.54 34.0686 25.9044 33.9419 26.1386 33.6698C26.2914 33.4867 26.3778 33.2557 26.3778 33.0236C26.3778 32.7934 26.3047 32.5788 26.167 32.4035L26.8391 31.875C27.0929 32.1979 27.2327 32.6059 27.2327 33.0236C27.2327 33.4556 27.0757 33.8814 26.7906 34.2227C26.4316 34.6397 25.9136 34.872 25.3789 34.872Z" fill="#375CA5"/>
<path d="M8.84715 28.9483C8.81042 28.9483 8.77327 28.9474 8.7357 28.9456C8.12123 28.9159 7.55977 28.6442 7.15486 28.1806L6.96075 27.9583C6.54456 27.4816 6.3492 26.8479 6.42351 26.2199C6.49823 25.5919 6.83677 25.0218 7.35231 24.656L9.08301 23.4281C10.0106 22.7704 11.2821 22.9111 12.0435 23.7526C12.8546 24.6501 12.7986 26.0558 11.9191 26.8863L10.3825 28.3367C9.96255 28.7335 9.42071 28.9483 8.84715 28.9483ZM7.84739 25.3531C7.52346 25.5829 7.31933 25.9264 7.27258 26.3207C7.22582 26.715 7.34354 27.0969 7.60486 27.396L7.79896 27.6181C8.04943 27.9053 8.39674 28.0733 8.77702 28.0917C9.1619 28.1092 9.51923 27.9761 9.79557 27.7152L11.3322 26.2648C11.8765 25.7509 11.9107 24.8812 11.409 24.326C10.9385 23.8052 10.1508 23.7184 9.57809 24.1252L7.84739 25.3531Z" fill="#375CA5"/>
<path d="M11.3447 31.6566C11.3168 31.6566 11.2888 31.656 11.2613 31.655C10.6489 31.6314 10.0903 31.3638 9.68792 30.9013L9.38695 30.5594C8.83176 29.9257 8.68733 29.0483 9.00875 28.2685L9.79938 28.5945C9.60235 29.0719 9.69043 29.6085 10.029 29.9952L10.3312 30.3382C10.5787 30.6229 10.9202 30.7863 11.2938 30.8007C11.6708 30.8172 12.0252 30.6773 12.294 30.4125L15.6005 27.1562C15.8572 26.9037 16.0042 26.5539 16.0042 26.1968C16.0042 25.8668 15.8831 25.5497 15.6631 25.3037C15.1835 24.7589 14.3699 24.6896 13.8085 25.144L12.2815 26.3777L11.7438 25.7127L13.2708 24.479C14.1908 23.7358 15.5225 23.8489 16.3027 24.7364C16.6608 25.1367 16.8591 25.6564 16.8591 26.1968C16.8591 26.7814 16.6191 27.3531 16.2008 27.7653L12.8934 31.0219C12.4818 31.4277 11.9212 31.6566 11.3447 31.6566Z" fill="#375CA5"/>
<path d="M14.6734 33.7582C14.1061 33.7582 13.5443 33.5566 13.1005 33.1661C12.5871 32.7119 12.2932 32.0626 12.2932 31.3841C12.2932 30.8572 12.4748 30.3363 12.8042 29.9168L13.4762 30.4448C13.2646 30.7143 13.1481 31.0478 13.1481 31.3841C13.1481 31.8178 13.3372 32.2337 13.6666 32.5251C14.1483 32.9494 14.8496 33.0254 15.4106 32.714C15.5522 32.6334 15.6832 32.5272 15.8068 32.3911L17.6957 30.2758C17.9174 30.0276 18.0367 29.7141 18.0367 29.387C18.0367 29.0314 17.899 28.6995 17.6481 28.4528C17.1555 27.964 16.3837 27.9327 15.8523 28.3795L13.8169 30.1121L13.2625 29.4609L15.3 27.7267C16.175 26.9924 17.4415 27.0431 18.2492 27.8448C18.6633 28.2524 18.8917 28.8005 18.8917 29.387C18.8917 29.9247 18.695 30.4406 18.3377 30.8399L18.2058 30.9856L18.2066 30.9862L16.4421 32.963C16.2568 33.1674 16.051 33.3335 15.8285 33.4598C15.467 33.6601 15.0688 33.7582 14.6734 33.7582Z" fill="#375CA5"/>
<path d="M17.3763 35.0541C16.7622 35.0541 16.1786 34.8099 15.7416 34.3626C15.4122 34.0203 15.2173 33.577 15.191 33.1124L16.0442 33.0639C16.0592 33.3246 16.1695 33.5745 16.3552 33.7673C16.67 34.0892 17.1079 34.2438 17.5574 34.1881C18.0053 34.1332 18.3927 33.8784 18.6207 33.4891L18.9408 32.9508C19.0469 32.7709 19.1032 32.5593 19.1032 32.3399C19.1032 31.9552 18.9296 31.6046 18.6269 31.3775C18.4098 31.2153 18.1556 31.1293 17.8926 31.1293L17.8876 30.2744C18.3414 30.2744 18.7726 30.4193 19.1395 30.6931C19.6521 31.078 19.9581 31.6933 19.9581 32.3399C19.9581 32.7118 19.8609 33.0735 19.6764 33.3862L19.357 33.9235C18.9947 34.5425 18.376 34.9491 17.6614 35.0366C17.5658 35.0482 17.4706 35.0541 17.3763 35.0541Z" fill="#375CA5"/>
<path d="M31.0135 19.7872C28.1215 19.1253 25.2608 17.614 22.274 15.1695L20.7241 15.7374L18.7262 17.8822C17.3445 19.3695 15.1388 19.7173 13.3621 18.7277C13.0612 18.5599 12.8746 18.2406 12.8746 17.8943C12.8746 17.6814 12.9447 17.4798 13.077 17.3114L17.6409 11.4184L17.8676 11.2677L23.6816 9.70563L23.8783 9.69979L31.4656 11.2531H33.1253L37.8796 8.71484L38.282 9.46916L33.4334 12.0577L33.2322 12.108L31.3366 12.0992L23.806 10.5576L18.2282 12.056L13.7512 17.8375C13.7357 17.8572 13.7295 17.8743 13.7295 17.8943C13.7295 17.924 13.7445 17.9621 13.7783 17.9811C15.2101 18.778 16.9872 18.4981 18.1005 17.2999L20.1685 15.0799L20.3342 14.97L22.2102 14.2824L22.6301 14.3549C25.5801 16.8042 28.3845 18.3086 31.2039 18.954L31.0135 19.7872Z" fill="#375CA5"/>
<path d="M36.8973 23.9185L36.3413 23.2689L38.9833 21.0183L39.9943 20.4596L41.7405 19.7422L42.0652 20.5328L40.3425 21.2406L39.4366 21.7446L36.8973 23.9185Z" fill="#375CA5"/>
<path d="M17.3136 12.8708C16.2917 12.7048 15.2753 12.6748 14.2918 12.6458C13.105 12.6107 11.9842 12.5777 11.0592 12.2968L10.9611 12.2525L5.33398 8.81953L5.77897 8.08984L11.3585 11.4938C12.1675 11.7278 13.2123 11.7587 14.3173 11.7913C15.3279 11.8211 16.3731 11.852 17.4506 12.0267L17.3136 12.8708Z" fill="#375CA5"/>
<path d="M6.17136 23.8381L4.58343 21.8474L1.07861 19.7986L1.51024 19.0605L5.08394 21.1496L5.20249 21.2521L6.8401 23.3051L6.17136 23.8381Z" fill="#375CA5"/>
</svg>
