<svg width="128" height="44" viewBox="0 0 128 44" fill="none" xmlns="http://www.w3.org/2000/svg">
<g clip-path="url(#clip0_7969_24950)">
<path d="M54.3257 22.1462C54.3257 28.1397 49.637 32.5561 43.8829 32.5561C38.1289 32.5561 33.4402 28.1397 33.4402 22.1462C33.4402 16.1106 38.1289 11.7363 43.8829 11.7363C49.637 11.7363 54.3257 16.1106 54.3257 22.1462ZM49.7543 22.1462C49.7543 18.4009 47.0369 15.8383 43.8829 15.8383C40.729 15.8383 38.0115 18.4009 38.0115 22.1462C38.0115 25.854 40.729 28.4541 43.8829 28.4541C47.0369 28.4541 49.7543 25.8493 49.7543 22.1462Z" fill="#EA4335"/>
<path d="M76.854 22.1462C76.854 28.1397 72.1653 32.5561 66.4113 32.5561C60.6572 32.5561 55.9685 28.1397 55.9685 22.1462C55.9685 16.1152 60.6572 11.7363 66.4113 11.7363C72.1653 11.7363 76.854 16.1106 76.854 22.1462ZM72.2827 22.1462C72.2827 18.4009 69.5652 15.8383 66.4113 15.8383C63.2573 15.8383 60.5399 18.4009 60.5399 22.1462C60.5399 25.854 63.2573 28.4541 66.4113 28.4541C69.5652 28.4541 72.2827 25.8493 72.2827 22.1462Z" fill="#FBBC05"/>
<path d="M98.4433 12.3652V31.0542C98.4433 38.742 93.9095 41.8819 88.5497 41.8819C83.5043 41.8819 80.4677 38.5073 79.3225 35.7476L83.3025 34.0909C84.0112 35.7852 85.7477 37.7845 88.545 37.7845C91.9758 37.7845 94.1019 35.6678 94.1019 31.6832V30.186H93.9423C92.9192 31.4485 90.948 32.5514 88.4605 32.5514C83.2555 32.5514 78.4871 28.0176 78.4871 22.1838C78.4871 16.3077 83.2555 11.7363 88.4605 11.7363C90.9433 11.7363 92.9145 12.8393 93.9423 14.0642H94.1019V12.3699H98.4433V12.3652ZM94.4258 22.1838C94.4258 18.5182 91.9805 15.8383 88.8688 15.8383C85.7149 15.8383 83.0725 18.5182 83.0725 22.1838C83.0725 25.8117 85.7149 28.4541 88.8688 28.4541C91.9805 28.4541 94.4258 25.8117 94.4258 22.1838Z" fill="#4285F4"/>
<path d="M105.601 1.40723V31.9141H101.142V1.40723H105.601Z" fill="#34A853"/>
<path d="M122.976 25.5693L126.524 27.9347C125.379 29.629 122.619 32.5483 117.851 32.5483C111.937 32.5483 107.521 27.977 107.521 22.1384C107.521 15.9479 111.975 11.7285 117.339 11.7285C122.741 11.7285 125.383 16.0276 126.247 18.3509L126.721 19.5336L112.805 25.2971C113.871 27.3856 115.527 28.451 117.851 28.451C120.179 28.451 121.793 27.3058 122.976 25.5693ZM112.054 21.824L121.357 17.9613C120.845 16.6612 119.306 15.7554 117.494 15.7554C115.171 15.7554 111.937 17.8064 112.054 21.824Z" fill="#EA4335"/>
<path d="M16.5626 19.4354V15.0189H31.4453C31.5908 15.7886 31.6659 16.6991 31.6659 17.6847C31.6659 20.9983 30.7601 25.0956 27.8408 28.0148C25.0013 30.9717 21.3734 32.5486 16.5673 32.5486C7.65932 32.5486 0.168701 25.2927 0.168701 16.3847C0.168701 7.47665 7.65932 0.220703 16.5673 0.220703C21.4954 0.220703 25.006 2.15437 27.6437 4.67471L24.5273 7.79111C22.6359 6.01702 20.0733 4.63717 16.5626 4.63717C10.0576 4.63717 4.97002 9.87966 4.97002 16.3847C4.97002 22.8897 10.0576 28.1322 16.5626 28.1322C20.782 28.1322 23.185 26.4379 24.7244 24.8984C25.9729 23.65 26.7942 21.8665 27.118 19.4307L16.5626 19.4354Z" fill="#4285F4"/>
</g>
<defs>
<clipPath id="clip0_7969_24950">
<rect width="127.66" height="43.179" fill="white"/>
</clipPath>
</defs>
</svg>
