<svg width="11" height="10" viewBox="0 0 11 10" fill="none" xmlns="http://www.w3.org/2000/svg">
<path fill-rule="evenodd" clip-rule="evenodd" d="M5.33773 0.193C5.04496 0.485736 5.07897 0.991013 5.41394 1.32595L7.59185 3.50368C7.70341 3.61523 7.62438 3.806 7.4666 3.80599H0.855075C0.381354 3.80599 0 4.13928 0 4.55327C0 4.96726 0.381354 5.30054 0.855075 5.30054H7.4666C7.62438 5.30054 7.70341 5.4913 7.59185 5.60285L5.41394 7.78058C5.07897 8.11552 5.04496 8.6208 5.33773 8.91353C5.70374 9.22525 6.17962 9.12046 6.47085 8.83738L10.0636 5.24495C10.2541 5.05445 10.3471 4.8089 10.3471 4.55327C10.3471 4.29764 10.2541 4.05208 10.0636 3.86159L6.47085 0.269153C6.12587 -0.0304025 5.65428 -0.113333 5.33773 0.193Z" fill="white"/>
<path fill-rule="evenodd" clip-rule="evenodd" d="M5.34346e-05 4.54883C5.23138e-05 4.54933 0 4.54982 0 4.55032C0 4.96415 0.381537 5.2973 0.855486 5.2973H7.4702C7.62805 5.2973 7.70712 5.48799 7.5955 5.5995L5.41655 7.77637C5.08142 8.11118 5.04739 8.61625 5.3403 8.90887C5.70648 9.22047 6.18259 9.11572 6.47396 8.83275L10.0684 5.24173C10.2591 5.05131 10.3521 4.80585 10.3521 4.55032C10.3521 4.54982 10.3521 4.54933 10.3521 4.54883L5.34346e-05 4.54883Z" fill="white"/>
</svg>
